<mxfile host="app.diagrams.net" modified="2021-04-12T06:38:03.266Z" agent="5.0 (Windows NT 10.0; Win64; x64) AppleWebKit/537.36 (KHTML, like Gecko) Chrome/89.0.4389.114 Safari/537.36" etag="QpqihLRZSgviD0c2i570" version="14.5.4" type="github">
  <diagram id="yBvCHe0X85MX-63PUshE" name="Page-1">
    <mxGraphModel dx="1422" dy="2051" grid="1" gridSize="10" guides="1" tooltips="1" connect="1" arrows="1" fold="1" page="1" pageScale="1" pageWidth="827" pageHeight="1169" math="0" shadow="0">
      <root>
        <mxCell id="0" />
        <mxCell id="1" parent="0" />
        <mxCell id="sJrLk817jnm3rEt99MOo-1" value="" style="edgeStyle=orthogonalEdgeStyle;curved=1;rounded=0;orthogonalLoop=1;jettySize=auto;html=1;" parent="1" source="sJrLk817jnm3rEt99MOo-4" target="sJrLk817jnm3rEt99MOo-7" edge="1">
          <mxGeometry relative="1" as="geometry" />
        </mxCell>
        <mxCell id="sJrLk817jnm3rEt99MOo-2" style="edgeStyle=orthogonalEdgeStyle;curved=1;rounded=0;orthogonalLoop=1;jettySize=auto;html=1;exitX=0.5;exitY=1;exitDx=0;exitDy=0;entryX=0;entryY=0.5;entryDx=0;entryDy=0;" parent="1" source="sJrLk817jnm3rEt99MOo-4" target="sJrLk817jnm3rEt99MOo-22" edge="1">
          <mxGeometry relative="1" as="geometry" />
        </mxCell>
        <mxCell id="sJrLk817jnm3rEt99MOo-3" style="edgeStyle=orthogonalEdgeStyle;curved=1;rounded=0;orthogonalLoop=1;jettySize=auto;html=1;exitX=0.25;exitY=1;exitDx=0;exitDy=0;entryX=0;entryY=0.5;entryDx=0;entryDy=0;" parent="1" source="sJrLk817jnm3rEt99MOo-4" target="sJrLk817jnm3rEt99MOo-25" edge="1">
          <mxGeometry relative="1" as="geometry" />
        </mxCell>
        <mxCell id="sJrLk817jnm3rEt99MOo-4" value="run()" style="rounded=0;whiteSpace=wrap;html=1;align=center;" parent="1" vertex="1">
          <mxGeometry x="70" y="160" width="150" height="60" as="geometry" />
        </mxCell>
        <mxCell id="sJrLk817jnm3rEt99MOo-5" value="" style="edgeStyle=orthogonalEdgeStyle;curved=1;rounded=0;orthogonalLoop=1;jettySize=auto;html=1;" parent="1" source="sJrLk817jnm3rEt99MOo-7" target="sJrLk817jnm3rEt99MOo-11" edge="1">
          <mxGeometry relative="1" as="geometry" />
        </mxCell>
        <mxCell id="sJrLk817jnm3rEt99MOo-6" value="" style="edgeStyle=orthogonalEdgeStyle;curved=1;rounded=0;orthogonalLoop=1;jettySize=auto;html=1;exitX=0.75;exitY=1;exitDx=0;exitDy=0;entryX=0;entryY=0.5;entryDx=0;entryDy=0;" parent="1" source="sJrLk817jnm3rEt99MOo-4" target="sJrLk817jnm3rEt99MOo-18" edge="1">
          <mxGeometry relative="1" as="geometry" />
        </mxCell>
        <mxCell id="sJrLk817jnm3rEt99MOo-7" value="prepareEnvironment()" style="rounded=0;whiteSpace=wrap;html=1;align=center;" parent="1" vertex="1">
          <mxGeometry x="300" y="160" width="150" height="60" as="geometry" />
        </mxCell>
        <mxCell id="sJrLk817jnm3rEt99MOo-8" value="&lt;span&gt;SpringApplication.&lt;/span&gt;" style="text;html=1;align=center;verticalAlign=middle;resizable=0;points=[];autosize=1;" parent="1" vertex="1">
          <mxGeometry x="70" y="120" width="110" height="20" as="geometry" />
        </mxCell>
        <mxCell id="sJrLk817jnm3rEt99MOo-9" value="&lt;span&gt;SpringApplication.&lt;/span&gt;" style="text;html=1;align=center;verticalAlign=middle;resizable=0;points=[];autosize=1;" parent="1" vertex="1">
          <mxGeometry x="300" y="120" width="110" height="20" as="geometry" />
        </mxCell>
        <mxCell id="sJrLk817jnm3rEt99MOo-10" value="" style="edgeStyle=orthogonalEdgeStyle;curved=1;rounded=0;orthogonalLoop=1;jettySize=auto;html=1;" parent="1" source="sJrLk817jnm3rEt99MOo-11" target="sJrLk817jnm3rEt99MOo-15" edge="1">
          <mxGeometry relative="1" as="geometry" />
        </mxCell>
        <mxCell id="sJrLk817jnm3rEt99MOo-11" value="onApplicationEvent()" style="rounded=0;whiteSpace=wrap;html=1;align=center;" parent="1" vertex="1">
          <mxGeometry x="650" y="160" width="150" height="60" as="geometry" />
        </mxCell>
        <mxCell id="sJrLk817jnm3rEt99MOo-12" value="listeners.environmentPrepared" style="text;html=1;align=center;verticalAlign=middle;resizable=0;points=[];autosize=1;" parent="1" vertex="1">
          <mxGeometry x="460" y="160" width="180" height="20" as="geometry" />
        </mxCell>
        <mxCell id="sJrLk817jnm3rEt99MOo-13" value="BootstrapApplicationListener" style="text;html=1;align=center;verticalAlign=middle;resizable=0;points=[];autosize=1;" parent="1" vertex="1">
          <mxGeometry x="540" y="90" width="170" height="20" as="geometry" />
        </mxCell>
        <mxCell id="sJrLk817jnm3rEt99MOo-14" style="edgeStyle=orthogonalEdgeStyle;curved=1;rounded=0;orthogonalLoop=1;jettySize=auto;html=1;" parent="1" source="sJrLk817jnm3rEt99MOo-15" target="sJrLk817jnm3rEt99MOo-8" edge="1">
          <mxGeometry relative="1" as="geometry">
            <mxPoint x="130" y="310" as="targetPoint" />
            <Array as="points">
              <mxPoint x="145" y="30" />
            </Array>
          </mxGeometry>
        </mxCell>
        <mxCell id="sJrLk817jnm3rEt99MOo-15" value="bootstrapServiceContext()" style="whiteSpace=wrap;html=1;rounded=0;" parent="1" vertex="1">
          <mxGeometry x="635" y="-10" width="180" height="60" as="geometry" />
        </mxCell>
        <mxCell id="sJrLk817jnm3rEt99MOo-16" value="第二次就跳出了" style="text;html=1;align=center;verticalAlign=middle;resizable=0;points=[];autosize=1;" parent="1" vertex="1">
          <mxGeometry x="730" y="90" width="100" height="20" as="geometry" />
        </mxCell>
        <mxCell id="sJrLk817jnm3rEt99MOo-17" value="&lt;div&gt;&lt;span&gt;  &lt;/span&gt;// don&#39;t listen to events in a bootstrap context&lt;/div&gt;&lt;div&gt;&lt;span&gt;  &lt;/span&gt;if (environment.getPropertySources().contains(BOOTSTRAP_PROPERTY_SOURCE_NAME)) {&lt;/div&gt;&lt;div&gt;&lt;span&gt;   &lt;/span&gt;return;&lt;/div&gt;&lt;div&gt;&lt;span&gt;  &lt;/span&gt;}&lt;/div&gt;" style="text;html=1;align=left;verticalAlign=middle;resizable=0;points=[];autosize=1;" parent="1" vertex="1">
          <mxGeometry x="840" y="80" width="530" height="60" as="geometry" />
        </mxCell>
        <mxCell id="sJrLk817jnm3rEt99MOo-18" value="refresh()" style="rounded=0;whiteSpace=wrap;html=1;align=center;" parent="1" vertex="1">
          <mxGeometry x="300" y="280" width="150" height="40" as="geometry" />
        </mxCell>
        <mxCell id="sJrLk817jnm3rEt99MOo-19" value="&lt;span&gt;AbstractApplicationContext&lt;/span&gt;" style="text;html=1;align=center;verticalAlign=middle;resizable=0;points=[];autosize=1;" parent="1" vertex="1">
          <mxGeometry x="300" y="250" width="160" height="20" as="geometry" />
        </mxCell>
        <mxCell id="sJrLk817jnm3rEt99MOo-20" value="加载配置类" style="text;html=1;align=center;verticalAlign=middle;resizable=0;points=[];autosize=1;" parent="1" vertex="1">
          <mxGeometry x="450" y="290" width="80" height="20" as="geometry" />
        </mxCell>
        <mxCell id="sJrLk817jnm3rEt99MOo-21" value="" style="edgeStyle=orthogonalEdgeStyle;curved=1;rounded=0;orthogonalLoop=1;jettySize=auto;html=1;" parent="1" source="sJrLk817jnm3rEt99MOo-22" target="sJrLk817jnm3rEt99MOo-23" edge="1">
          <mxGeometry relative="1" as="geometry" />
        </mxCell>
        <mxCell id="sJrLk817jnm3rEt99MOo-22" value="callRunners()" style="rounded=0;whiteSpace=wrap;html=1;align=center;" parent="1" vertex="1">
          <mxGeometry x="300" y="360" width="150" height="40" as="geometry" />
        </mxCell>
        <mxCell id="sJrLk817jnm3rEt99MOo-23" value="" style="whiteSpace=wrap;html=1;rounded=0;" parent="1" vertex="1">
          <mxGeometry x="545" y="350" width="120" height="60" as="geometry" />
        </mxCell>
        <mxCell id="sJrLk817jnm3rEt99MOo-24" value="" style="edgeStyle=orthogonalEdgeStyle;curved=1;rounded=0;orthogonalLoop=1;jettySize=auto;html=1;" parent="1" source="sJrLk817jnm3rEt99MOo-25" target="sJrLk817jnm3rEt99MOo-27" edge="1">
          <mxGeometry relative="1" as="geometry" />
        </mxCell>
        <mxCell id="sJrLk817jnm3rEt99MOo-25" value="listeners.running" style="rounded=0;whiteSpace=wrap;html=1;align=center;" parent="1" vertex="1">
          <mxGeometry x="300" y="450" width="150" height="40" as="geometry" />
        </mxCell>
        <mxCell id="sJrLk817jnm3rEt99MOo-26" value="" style="edgeStyle=orthogonalEdgeStyle;curved=1;rounded=0;orthogonalLoop=1;jettySize=auto;html=1;" parent="1" source="sJrLk817jnm3rEt99MOo-27" target="sJrLk817jnm3rEt99MOo-29" edge="1">
          <mxGeometry relative="1" as="geometry" />
        </mxCell>
        <mxCell id="sJrLk817jnm3rEt99MOo-27" value="running()" style="whiteSpace=wrap;html=1;rounded=0;" parent="1" vertex="1">
          <mxGeometry x="545" y="445" width="120" height="50" as="geometry" />
        </mxCell>
        <mxCell id="sJrLk817jnm3rEt99MOo-28" value="EventPublishingRunListener" style="text;html=1;align=center;verticalAlign=middle;resizable=0;points=[];autosize=1;" parent="1" vertex="1">
          <mxGeometry x="545" y="420" width="170" height="20" as="geometry" />
        </mxCell>
        <mxCell id="sJrLk817jnm3rEt99MOo-29" value="running()" style="whiteSpace=wrap;html=1;rounded=0;" parent="1" vertex="1">
          <mxGeometry x="745" y="445" width="120" height="50" as="geometry" />
        </mxCell>
      </root>
    </mxGraphModel>
  </diagram>
</mxfile>
